<svg width="40" height="29" viewBox="0 0 40 29" fill="none" xmlns="http://www.w3.org/2000/svg">
<path d="M13.5346 12.2563V6.16575C13.5346 5.09426 13.2526 4.19196 12.5195 3.47764C11.9555 2.93249 11.0908 2.61293 10.1133 2.61293C8.85387 2.61293 7.89517 3.06408 7.12445 4.00398C6.52292 3.08288 5.60181 2.61293 4.41754 2.61293C3.45884 2.61293 2.51894 2.98889 1.8798 3.68441V2.72571H0V12.2563H1.9174V6.44772C1.9174 4.98148 2.8197 4.32355 3.89119 4.32355C4.96268 4.32355 5.80859 4.96268 5.80859 6.44772V12.2563H7.72599V6.35373C7.72599 4.98148 8.66589 4.32355 9.69978 4.32355C10.7713 4.32355 11.6172 4.96268 11.6172 6.44772V12.2563H13.5346Z" fill="#333333"/>
<path d="M24.0794 8.04556V7.19964C24.0794 4.49273 22.5943 2.61293 20.0378 2.61293C17.5941 2.61293 15.9962 4.39874 15.9962 7.48162C15.9962 11.1096 17.8948 12.3691 20.2822 12.3691C21.9552 12.3691 22.8763 11.8616 23.8538 10.8841L22.6319 9.73738C21.9552 10.4141 21.3913 10.7149 20.3198 10.7149C18.7596 10.7149 17.8948 9.68099 17.8948 8.04556H24.0794ZM22.1808 6.7109H17.8948C17.9136 6.12816 17.9512 5.84619 18.1392 5.41383C18.44 4.69951 19.1355 4.21076 20.0378 4.21076C20.9401 4.21076 21.6169 4.69951 21.9176 5.41383C22.1056 5.84619 22.162 6.12816 22.1808 6.7109Z" fill="#333333"/>
<path d="M30.6035 12.2563V10.6209H29.814C29.0996 10.6209 28.7613 10.2073 28.7613 9.5118V4.36114H30.6035V2.8949H28.7613V0H26.8439V2.8949H25.7536V4.36114H26.8439V9.60579C26.8439 10.978 27.671 12.2563 29.4568 12.2563H30.6035Z" fill="#333333"/>
<path d="M40 12.2563V5.88378C40 3.72201 38.6841 2.61293 36.0712 2.61293C34.4922 2.61293 33.5523 2.93249 32.65 3.98518L33.9094 5.16946C34.4358 4.49273 34.9433 4.24835 35.996 4.24835C37.4811 4.24835 38.0826 4.83109 38.0826 6.03417V6.7109H35.5637C33.3831 6.7109 32.274 7.85758 32.274 9.45541C32.274 10.2637 32.5372 10.9968 33.0259 11.5044C33.6087 12.0871 34.3982 12.3691 35.5825 12.3691C36.7667 12.3691 37.4247 12.0871 38.1202 11.3916V12.2563H40ZM38.0826 8.81628C38.0826 9.493 37.951 9.94416 37.669 10.2261C37.1615 10.7149 36.6164 10.7713 35.8832 10.7713C34.6802 10.7713 34.135 10.2825 34.135 9.41781C34.135 8.5531 34.7178 8.04556 35.8456 8.04556H38.0826V8.81628Z" fill="#333333"/>
<path d="M13.4281 25.9488L0.0439452 25.9488L0.0439453 27.979L13.4281 27.979L13.4281 25.9488Z" fill="#FD6E28"/>
<path d="M24.0302 27.9214L20.3082 22.1316L23.6166 18.3908H21.2856L17.5824 22.7896V14.5372H15.665V27.9214H17.5824V25.1205L18.9923 23.5227L21.6616 27.9214H24.0302Z" fill="#333333"/>
<path d="M32.9752 27.9214V21.5489C32.9752 19.3871 31.6594 18.278 29.0464 18.278C27.4674 18.278 26.5275 18.5976 25.6252 19.6503L26.8847 20.8346C27.411 20.1578 27.9186 19.9135 28.9713 19.9135C30.4563 19.9135 31.0578 20.4962 31.0578 21.6993V22.376H28.5389C26.3583 22.376 25.2492 23.5227 25.2492 25.1205C25.2492 25.9288 25.5124 26.662 26.0012 27.1695C26.5839 27.7522 27.3734 28.0342 28.5577 28.0342C29.742 28.0342 30.3999 27.7522 31.0954 27.0567V27.9214H32.9752ZM31.0578 24.4814C31.0578 25.1581 30.9262 25.6093 30.6443 25.8912C30.1367 26.38 29.5916 26.4364 28.8585 26.4364C27.6554 26.4364 27.1102 25.9476 27.1102 25.0829C27.1102 24.2182 27.693 23.7107 28.8209 23.7107H31.0578V24.4814Z" fill="#333333"/>
<path d="M39.9168 27.9214V26.286H39.1273C38.413 26.286 38.0746 25.8724 38.0746 25.1769V20.0263H39.9168V18.56H38.0746V15.6651H36.1572V18.56H35.067V20.0263H36.1572V25.2709C36.1572 26.6432 36.9844 27.9214 38.7702 27.9214H39.9168Z" fill="#333333"/>
</svg>
