<svg width="59" height="43" viewBox="0 0 59 43" fill="none" xmlns="http://www.w3.org/2000/svg">
<path d="M28.491 19.9254C27.1789 19.9254 26.0478 19.6223 25.0977 19.016C24.1476 18.4097 23.4192 17.5637 22.9124 16.4778C22.4057 15.3829 22.1523 14.107 22.1523 12.6502C22.1523 11.139 22.4148 9.84507 22.9396 8.76827C23.4644 7.68242 24.2019 6.84993 25.152 6.27081C26.1021 5.69168 27.2151 5.40212 28.491 5.40212C29.5859 5.40212 30.5813 5.63739 31.4771 6.10793C32.382 6.57846 33.1014 7.30237 33.6352 8.27963C34.1691 9.24785 34.4361 10.483 34.4361 11.9851C34.4361 12.2204 34.4315 12.5009 34.4225 12.8266C34.4134 13.1434 34.3863 13.4646 34.3411 13.7903H25.1792C25.2335 14.4961 25.4009 15.1115 25.6814 15.6363C25.9709 16.1611 26.3555 16.5728 26.8351 16.8715C27.3147 17.161 27.8802 17.3058 28.5317 17.3058C29.1651 17.3058 29.7262 17.2017 30.2148 16.9936C30.7034 16.7764 31.1695 16.4326 31.6128 15.962L33.3774 17.8216C32.8073 18.4459 32.1105 18.9527 31.2871 19.3418C30.4727 19.7309 29.5407 19.9254 28.491 19.9254ZM25.1927 11.3336H31.45C31.4228 10.673 31.2871 10.0939 31.0428 9.59623C30.8075 9.09855 30.4727 8.71398 30.0384 8.44251C29.604 8.162 29.0747 8.02174 28.4503 8.02174C27.5816 8.02174 26.8396 8.29321 26.2243 8.83613C25.618 9.37906 25.2742 10.2115 25.1927 11.3336Z" fill="#333333"/>
<path d="M41.099 19.9254C40.0493 19.9254 39.2576 19.6268 38.7237 19.0296C38.1898 18.4324 37.9229 17.5592 37.9229 16.41V8.40179H35.819V5.72788H37.9229V1.45233L40.9633 0V5.72788H44.1937V8.40179H40.9633V15.7449C40.9633 16.2426 41.0583 16.6136 41.2483 16.8579C41.4474 17.0931 41.7505 17.2108 42.1577 17.2108C42.8183 17.2108 43.5377 16.9936 44.3158 16.5593L43.9765 19.301C43.5512 19.5092 43.1033 19.663 42.6328 19.7625C42.1622 19.8711 41.651 19.9254 41.099 19.9254Z" fill="#333333"/>
<path d="M51.0036 19.9254C49.4834 19.9254 48.289 19.5137 47.4203 18.6903C46.5516 17.8668 46.1173 16.7493 46.1173 15.3377C46.1173 14.4147 46.339 13.6139 46.7823 12.9352C47.2257 12.2475 47.8501 11.7182 48.6554 11.3472C49.4608 10.9671 50.4019 10.7771 51.4787 10.7771C52.1121 10.7771 52.7138 10.8404 53.2839 10.9671C53.863 11.0848 54.3788 11.2657 54.8312 11.5101V10.6142C54.8312 9.72744 54.605 9.0714 54.1526 8.64611C53.7001 8.21177 53.017 7.9946 52.103 7.9946C51.4334 7.9946 50.7412 8.11676 50.0263 8.36107C49.3115 8.60539 48.6102 8.95829 47.9225 9.41978L47.0131 6.99018C47.7732 6.48345 48.6283 6.09435 49.5784 5.82289C50.5285 5.54238 51.4832 5.40212 52.4424 5.40212C54.225 5.40212 55.5597 5.83646 56.4464 6.70515C57.3423 7.56478 57.7902 8.85876 57.7902 10.5871V19.5997H54.8312V18.4324C54.3426 18.912 53.768 19.283 53.1074 19.5454C52.4469 19.7987 51.7456 19.9254 51.0036 19.9254ZM51.628 17.3329C52.2161 17.3329 52.7862 17.2063 53.3382 16.9529C53.8992 16.6995 54.3969 16.3376 54.8312 15.867V13.9804C54.424 13.7541 53.9626 13.5822 53.4468 13.4646C52.94 13.3379 52.4424 13.2746 51.9537 13.2746C51.0488 13.2746 50.3385 13.4601 49.8227 13.8311C49.307 14.193 49.0491 14.6952 49.0491 15.3377C49.0491 15.953 49.2753 16.4416 49.7277 16.8036C50.1802 17.1565 50.8136 17.3329 51.628 17.3329Z" fill="#333333"/>
<path d="M23.1973 42.6742V24.4998L26.2377 23.0746V33.0237L30.3096 28.8025H33.9201L30.0381 32.7115L35.1688 42.6742H31.8569L27.8257 34.9104L26.2377 36.512V42.6742H23.1973Z" fill="#333333"/>
<path d="M41.1478 43C39.6276 43 38.4331 42.5883 37.5645 41.7648C36.6958 40.9414 36.2614 39.8239 36.2614 38.4123C36.2614 37.4893 36.4831 36.6885 36.9265 36.0098C37.3699 35.3221 37.9943 34.7928 38.7996 34.4218C39.605 34.0417 40.546 33.8517 41.6228 33.8517C42.2563 33.8517 42.858 33.915 43.4281 34.0417C44.0072 34.1593 44.523 34.3403 44.9754 34.5846V33.6888C44.9754 32.802 44.7492 32.146 44.2968 31.7207C43.8443 31.2864 43.1611 31.0692 42.2472 31.0692C41.5776 31.0692 40.8854 31.1913 40.1705 31.4357C39.4557 31.68 38.7544 32.0329 38.0667 32.4944L37.1573 30.0648C37.9174 29.558 38.7725 29.1689 39.7226 28.8975C40.6727 28.617 41.6274 28.4767 42.5865 28.4767C44.3691 28.4767 45.7038 28.9111 46.5906 29.7797C47.4865 30.6394 47.9344 31.9333 47.9344 33.6617V42.6742H44.9754V41.507C44.4868 41.9865 43.9122 42.3575 43.2516 42.62C42.5911 42.8733 41.8898 43 41.1478 43ZM41.7722 40.4075C42.3603 40.4075 42.9304 40.2808 43.4824 40.0275C44.0434 39.7741 44.5411 39.4122 44.9754 38.9416V37.055C44.5682 36.8287 44.1067 36.6568 43.591 36.5392C43.0842 36.4125 42.5865 36.3491 42.0979 36.3491C41.193 36.3491 40.4827 36.5346 39.9669 36.9057C39.4511 37.2676 39.1932 37.7698 39.1932 38.4123C39.1932 39.0276 39.4195 39.5162 39.8719 39.8782C40.3243 40.2311 40.9578 40.4075 41.7722 40.4075Z" fill="#333333"/>
<path d="M54.9443 43C53.8946 43 53.1028 42.7014 52.569 42.1042C52.0351 41.507 51.7682 40.6337 51.7682 39.4846V31.4764H49.6643V28.8025H51.7682V24.5269L54.8085 23.0746V28.8025H58.039V31.4764H54.8085V38.8195C54.8085 39.3172 54.9036 39.6881 55.0936 39.9325C55.2926 40.1677 55.5958 40.2854 56.003 40.2854C56.6635 40.2854 57.3829 40.0682 58.1611 39.6339L57.8218 42.3756C57.3965 42.5838 56.9486 42.7376 56.478 42.8371C56.0075 42.9457 55.4963 43 54.9443 43Z" fill="#333333"/>
<path d="M0 19.5996V5.72785H3.04039V7.01731C3.47473 6.47438 3.98146 6.07171 4.56059 5.80929C5.13971 5.53783 5.79122 5.4021 6.51512 5.4021C7.32951 5.4021 8.04437 5.57403 8.65968 5.91788C9.275 6.25268 9.75006 6.74584 10.0849 7.39736C10.5283 6.75489 11.1074 6.26173 11.8222 5.91788C12.5461 5.57403 13.3515 5.4021 14.2383 5.4021C15.867 5.4021 17.1203 5.86359 17.998 6.78656C18.8758 7.70049 19.3146 9.01709 19.3146 10.7364V19.5996H16.2607V11.7408C16.2607 10.5825 16.0525 9.71837 15.6363 9.14829C15.2291 8.56917 14.6138 8.27961 13.7903 8.27961C13.2293 8.27961 12.7497 8.41082 12.3516 8.67323C11.9625 8.93565 11.6684 9.32475 11.4693 9.84053C11.2703 10.3563 11.1707 10.9852 11.1707 11.7272V19.5996H8.11676V11.7408C8.11676 10.5644 7.91316 9.69575 7.50596 9.13472C7.10782 8.56465 6.4925 8.27961 5.66001 8.27961C4.80038 8.27961 4.14887 8.56465 3.70548 9.13472C3.26209 9.70479 3.04039 10.5509 3.04039 11.6729V19.5996H0Z" fill="#333333"/>
<path d="M19.0024 42.8231L0 42.8231L-1.37053e-07 39.6877L19.0024 39.6877L19.0024 42.8231Z" fill="#FD6E28"/>
</svg>
