<svg width="159" height="159" viewBox="0 0 159 159" fill="none" xmlns="http://www.w3.org/2000/svg">
<path d="M15.3428 149.579C9.47183 149.579 7.85783 151.414 7.85783 158.385H0.298828V153.469C0.298828 144.516 4.33483 140.114 13.8748 140.114H66.7178C71.1208 140.114 74.3498 138.645 74.3498 133.142H81.6888C81.6888 138.645 84.9178 140.114 89.3198 140.114H143.117C154.198 140.114 158.674 143.782 158.674 153.543V158.386H151.115C151.115 151.415 149.501 149.58 143.631 149.58H88.4398C83.1568 149.58 79.7078 147.085 78.0198 142.756C76.3318 147.085 72.9558 149.58 67.6738 149.58H15.3428V149.579Z" fill="#F26E21"/>
<path d="M15.3428 149.579C9.47183 149.579 7.85783 151.414 7.85783 158.385H0.298828V153.469C0.298828 144.516 4.33483 140.114 13.8748 140.114H66.7178C71.1208 140.114 74.3498 138.645 74.3498 133.142H81.6888C81.6888 138.645 84.9178 140.114 89.3198 140.114H143.117C154.198 140.114 158.674 143.782 158.674 153.543V158.386H151.115C151.115 151.415 149.501 149.58 143.631 149.58H88.4398C83.1568 149.58 79.7078 147.085 78.0198 142.756C76.3318 147.085 72.9558 149.58 67.6738 149.58H15.3428V149.579Z" fill="#F26E21"/>
<path d="M52.1209 117.386V113.256L55.8579 112.666L48.7129 100.145L43.9929 105.389V111.419C43.9929 112.468 44.0579 112.6 45.0419 112.731L48.7129 113.19V117.385H31.6689V113.255L35.4059 112.731C36.3229 112.6 36.4549 112.404 36.4549 111.419V74.7097C36.4549 73.9887 36.2579 73.5296 35.6029 73.3336L31.8659 72.0887L32.5219 67.8936H43.9939V97.9817L57.1699 83.4956H65.1669V87.6906L61.5619 88.4116C60.7099 88.5426 60.5129 88.7396 59.9229 89.3936L54.4829 95.3596L63.7909 111.551C64.3149 112.404 64.6429 112.534 65.7569 112.665L68.903 113.255V117.385H52.1209V117.386Z" fill="#333333"/>
<path d="M92.1048 117.386L91.4498 113.518L91.2528 113.454C88.3688 116.207 84.8288 118.173 79.7158 118.173C71.4568 118.173 70.3418 112.536 70.3418 108.865C70.3418 102.309 74.4058 99.1628 82.4038 98.5078L90.7288 97.8528V94.5088C90.7288 90.3798 90.0078 88.1508 84.9598 88.1508C81.3548 88.1508 78.9288 88.4138 78.9288 92.9368L71.8488 92.2808C71.8488 83.8898 79.5178 82.8418 85.0908 82.8418C94.5958 82.8418 98.1348 85.5298 98.1348 94.5758V111.422C98.1348 112.471 98.2008 112.603 99.1838 112.734L102.396 113.193V117.388H92.1048V117.386ZM90.7288 102.637L84.5008 103.161C79.5838 103.62 78.0768 104.996 78.0768 108.142C78.0768 111.288 79.5838 112.337 82.2718 112.337C85.4838 112.337 88.7618 110.37 90.7278 108.404V102.637H90.7288Z" fill="#333333"/>
<path d="M127.306 115.878C124.618 117.123 121.078 118.172 117.604 118.172C110.721 118.172 107.837 115.157 107.837 108.667V89.5255C107.837 89.1315 107.837 88.8704 107.313 88.8704H102.593V84.2165C107.706 83.5605 109.738 80.0864 110.591 74.3184H115.376V82.8395C115.376 83.2985 115.376 83.4954 115.9 83.4954H125.405V88.8704H115.376V106.7C115.376 110.764 116.425 112.271 120.096 112.271C122.063 112.271 124.095 111.747 125.799 111.157L127.306 115.878Z" fill="#333333"/>
<path d="M45.3377 56.9474V52.8164L48.7467 52.3574C49.6647 52.2264 49.7957 51.8344 49.7957 51.0464V35.6424C49.7957 31.9064 49.3377 28.7594 45.6667 28.7594C42.7167 28.7594 39.6357 30.0704 37.6037 31.3804C37.8007 32.4954 37.8657 33.7414 37.8657 35.0524V50.9814C37.8657 52.0304 37.9307 52.1624 38.9147 52.2934L41.9297 52.7524V56.9474H25.8047V52.8164L29.2787 52.3574C30.2617 52.2264 30.3277 51.8344 30.3277 51.0464V35.9703C30.3277 32.1673 30.1307 28.6934 26.2637 28.6934C23.1177 28.6934 20.2987 30.3324 18.1347 32.0374V50.9814C18.1347 52.0304 18.2007 52.1624 19.1837 52.2934L22.3957 52.7524V56.9474H6.39972V52.8164L9.54573 52.2934C10.4627 52.1624 10.5947 51.9654 10.5947 50.9814V29.8744C10.5947 29.1524 10.3977 28.6934 9.74173 28.4984L6.13672 27.2524L6.79173 23.0574H16.4937L17.0177 26.7284L17.2797 26.7934C20.6227 24.2364 24.0317 22.4004 28.4887 22.4004C31.6347 22.4004 34.5847 23.3184 36.2897 26.3344C39.4357 24.3034 42.9107 22.4004 47.6957 22.4004C54.9717 22.4004 57.3317 26.7934 57.3317 33.6104V50.9814C57.3317 52.0304 57.3967 52.1624 58.3807 52.2934L61.9857 52.7524V56.9474H45.3377Z" fill="#333333"/>
<path d="M92.7287 54.6514C89.1237 56.4874 84.9277 57.7324 80.1427 57.7324C67.9497 57.7324 63.9517 49.9314 63.9517 39.8364C63.9517 27.9714 70.8347 22.3984 79.4217 22.3984C87.6807 22.3984 93.3187 26.7914 93.3187 38.1974C93.3187 39.0494 93.2537 40.7544 93.1217 41.9994H71.9487C72.2767 48.0964 74.6367 51.7015 80.9947 51.7015C84.2067 51.7015 86.6977 51.0454 90.6307 49.4064L92.7287 54.6514ZM85.7807 36.5604C85.7807 30.1364 82.8307 28.1034 79.2906 28.1034C75.5546 28.1034 72.3427 30.5954 72.0147 36.5604H85.7807Z" fill="#333333"/>
<path d="M119.931 55.4389C117.243 56.6839 113.704 57.7328 110.23 57.7328C103.347 57.7328 100.462 54.7179 100.462 48.2279V29.0869C100.462 28.6919 100.462 28.4309 99.9378 28.4309H95.2178V23.7769C100.331 23.1219 102.364 19.6479 103.216 13.8789H108V22.3999C108 22.8589 108 23.0559 108.524 23.0559H118.029V28.4309H108V46.2609C108 50.3249 109.049 51.8329 112.72 51.8329C114.686 51.8329 116.719 51.3079 118.423 50.7179L119.931 55.4389Z" fill="#333333"/>
<path d="M143.462 56.9474L142.807 53.0794L142.61 53.0144C139.726 55.7684 136.186 57.7344 131.073 57.7344C122.813 57.7344 121.699 52.0964 121.699 48.4264C121.699 41.8694 125.763 38.7233 133.761 38.0693L142.086 37.4134V34.0704C142.086 29.9404 141.365 27.7124 136.317 27.7124C132.712 27.7124 130.286 27.9744 130.286 32.4974L123.206 31.8414C123.206 23.4504 130.875 22.4023 136.447 22.4023C145.952 22.4023 149.492 25.0904 149.492 34.1364V50.9833C149.492 52.0323 149.557 52.1644 150.541 52.2954L153.753 52.7544V56.9494H143.462V56.9474ZM142.086 42.1974L135.858 42.7224C130.942 43.1814 129.434 44.5574 129.434 47.7034C129.434 50.8494 130.942 51.8984 133.629 51.8984C136.841 51.8984 140.118 49.9314 142.085 47.9654V42.1974H142.086Z" fill="#333333"/>
</svg>
